<svg xmlns="http://www.w3.org/2000/svg" width="141.329" height="145.087" viewBox="0 0 141.329 145.087">
  <g id="CPU_01_Artboard_1" data-name="CPU 01 Artboard 1" transform="translate(-22.026 -35.04)">
    <path id="Path_35" data-name="Path 35" d="M226.029,118.909l.212-11.168-3.484-3.727-11.952-.205-2.134-1.973-.09-16.88L205.254,81.4l-.234-4.258" transform="translate(-142.975 -32.895)" fill="none" stroke="#595959" stroke-miterlimit="10" stroke-width="2"/>
    <path id="Path_36" data-name="Path 36" d="M276.43,277.8l-.07,41.413a2.3,2.3,0,0,0,2.307,2.3l41.066-.159a2.3,2.3,0,0,0,2.289-2.3l-.1-41.256a2.3,2.3,0,0,0-2.3-2.294h-40.9A2.3,2.3,0,0,0,276.43,277.8Z" transform="translate(-198.731 -187.922)" fill="none" stroke="#595959" stroke-miterlimit="10" stroke-width="5"/>
    <path id="Path_37" data-name="Path 37" d="M325.041,86.285l.179-25.046,4.518-4.566,0-9.507-6.91-6.921.05-5.195" transform="translate(-235.049 0)" fill="none" stroke="#595959" stroke-miterlimit="10" stroke-width="2"/>
    <path id="Path_38" data-name="Path 38" d="M397.3,98.351l-.007-22.61,3.607-3.594-.048-12.88,8.6-8.627,7.163.028" transform="translate(-293.242 -12.184)" fill="none" stroke="#595959" stroke-miterlimit="10" stroke-width="2"/>
    <path id="Path_39" data-name="Path 39" d="M428.28,154.287l.149-19.637,6.327-6.335-.024-6.254" transform="translate(-317.462 -68.002)" fill="none" stroke="#595959" stroke-miterlimit="10" stroke-width="2"/>
    <path id="Path_40" data-name="Path 40" d="M364.45,92.306l.155-24.9,4.658-4.638.146-12.636,1.955-1.986,0-5.549" transform="translate(-267.577 -5.901)" fill="none" stroke="#595959" stroke-miterlimit="10" stroke-width="2"/>
    <path id="Path_41" data-name="Path 41" d="M364.45,92.306l.155-24.9,4.658-4.638.146-12.636,1.955-1.986,0-5.549" transform="translate(-267.577 -5.901)" fill="none" stroke="#595959" stroke-miterlimit="10" stroke-width="2"/>
    <path id="Path_42" data-name="Path 42" d="M457.92,153.071l.323-12.553,10.405-10.447,11.292.031,4.328-4.511.061-5.691" transform="translate(-340.627 -66.314)" fill="none" stroke="#595959" stroke-miterlimit="10" stroke-width="2"/>
    <path id="Path_43" data-name="Path 43" d="M488.96,244.577l14.167-.024,4.45-3.631.111-8.845,4.142-3.537" transform="translate(-364.886 -151.221)" fill="none" stroke="#595959" stroke-miterlimit="10" stroke-width="2"/>
    <path id="Path_44" data-name="Path 44" d="M486.92,296.84l18.859-.175,8.675-6.993,7.884-.291,3.685-2.932" transform="translate(-363.292 -196.48)" fill="none" stroke="#595959" stroke-miterlimit="10" stroke-width="2"/>
    <path id="Path_45" data-name="Path 45" d="M488.58,360.588l8.782.024,1.63-1.274,14.191-.048,2.283,1.995,5.874.192" transform="translate(-364.589 -253.407)" fill="none" stroke="#595959" stroke-miterlimit="10" stroke-width="2"/>
    <path id="Path_46" data-name="Path 46" d="M490.17,397.661l11.146-.042,4.181,2.932,10.41.052" transform="translate(-365.832 -283.364)" fill="none" stroke="#595959" stroke-miterlimit="10" stroke-width="2"/>
    <path id="Path_47" data-name="Path 47" d="M488.95,428.97h6.313l10.746,8.808-.118,6.956.721.579" transform="translate(-364.879 -307.865)" fill="none" stroke="#595959" stroke-miterlimit="10" stroke-width="2"/>
    <path id="Path_48" data-name="Path 48" d="M487.76,460.68l6.309.015,3.589,2.875v11.95l1.112.983" transform="translate(-363.949 -332.648)" fill="none" stroke="#595959" stroke-miterlimit="10" stroke-width="2"/>
    <path id="Path_49" data-name="Path 49" d="M457.83,486.48,458,504.4l3.867,4.033.1,5.907,4.529,4.494,6.967.177" transform="translate(-340.557 -352.812)" fill="none" stroke="#595959" stroke-miterlimit="10" stroke-width="2"/>
    <path id="Path_50" data-name="Path 50" d="M411.6,488.66l.319,16.906,2.794,3.187.159,12.858-7.076,7.316.022,5.71" transform="translate(-301.456 -354.515)" fill="none" stroke="#595959" stroke-miterlimit="10" stroke-width="2"/>
    <path id="Path_51" data-name="Path 51" d="M386.34,517.968l.024-9.206,1.914-1.9-.031-20.736" transform="translate(-284.685 -352.538)" fill="none" stroke="#595959" stroke-miterlimit="10" stroke-width="2"/>
    <path id="Path_52" data-name="Path 52" d="M353.108,487.88l-.028,5.129-2.65,2.823.059,11.5,2.119,2.46.031,16.481" transform="translate(-256.619 -353.906)" fill="none" stroke="#595959" stroke-miterlimit="10" stroke-width="2"/>
    <path id="Path_53" data-name="Path 53" d="M294.522,487.58l-.046,5.223-4.17,3.978-.127,2.265-5.909,6v8.131l1.208,1.6-.085,2.244" transform="translate(-204.912 -353.671)" fill="none" stroke="#595959" stroke-miterlimit="10" stroke-width="2"/>
    <path id="Path_54" data-name="Path 54" d="M242.944,486.94l.179,5.046-3.34,3.786-8.59.026-3.7,3.655-.177,6.624" transform="translate(-160.404 -353.171)" fill="none" stroke="#595959" stroke-miterlimit="10" stroke-width="2"/>
    <path id="Path_55" data-name="Path 55" d="M136.213,451.886l-5.081.273-1.953-2.15-4.574-.039-2.462,2.619-4.808-.118-2.7,3.128-.157,12.664-2.774,3.128-13.027-.035" transform="translate(-59.866 -324.277)" fill="none" stroke="#595959" stroke-miterlimit="10" stroke-width="2"/>
    <path id="Path_56" data-name="Path 56" d="M178.018,427.73h-11.79l-2.971,3.141-10.877.057" transform="translate(-101.835 -306.896)" fill="none" stroke="#595959" stroke-miterlimit="10" stroke-width="2"/>
    <path id="Path_57" data-name="Path 57" d="M76.155,395.19l-19.7.142-5.195,5.51-20.815.059-2.112-2.143-6.252-.341" transform="translate(0 -281.465)" fill="none" stroke="#595959" stroke-miterlimit="10" stroke-width="2"/>
    <path id="Path_58" data-name="Path 58" d="M168.867,355.288l-10.711.061-2.381-2.167-7.845-.122-5.28,5.464-2.289-.092" transform="translate(-92.441 -248.538)" fill="none" stroke="#595959" stroke-miterlimit="10" stroke-width="2"/>
    <path id="Path_59" data-name="Path 59" d="M154.991,321.668l-23.777.306-2.381-3.082-6.073-.061" transform="translate(-78.686 -221.786)" fill="none" stroke="#595959" stroke-miterlimit="10" stroke-width="2"/>
    <path id="Path_60" data-name="Path 60" d="M128.693,232.711H109.921l-3.707-3.8.094-11.967-3-2.814L88.75,213.62" transform="translate(-52.105 -139.56)" fill="none" stroke="#595959" stroke-miterlimit="10" stroke-width="2"/>
  </g>
</svg>
